<svg id="Capa_1" enable-background="new 0 0 512 512" height="512" viewBox="0 0 512 512" width="512" xmlns="http://www.w3.org/2000/svg"><g id="XMLID_287_"><path id="XMLID_306_" d="m482 79.998h-37.457v-7.997c0-19.414-7.636-37.625-21.502-51.281-13.861-13.652-32.192-20.979-51.613-20.711-39.086.596-70.885 33.313-70.885 72.933v7.056h-89.086v-7.997c0-19.414-7.636-37.625-21.502-51.281-13.86-13.651-32.158-20.979-51.613-20.71-39.086.595-70.885 33.313-70.885 72.932v7.056h-37.457c-16.542 0-30 13.458-30 30v372c0 16.542 13.458 30 30 30h452c16.542 0 30-13.458 30-30v-372c0-16.542-13.458-30-30-30zm-161.457-7.056c0-28.758 22.964-52.504 51.189-52.935.272-.004.543-.006.814-.006 13.721 0 26.641 5.297 36.461 14.968 10.018 9.867 15.535 23.018 15.535 37.032v7.997h-20v-7.457c0-17.582-13.518-31.865-30.773-32.517-8.785-.338-17.088 2.84-23.412 8.931-6.329 6.094-9.814 14.279-9.814 23.046v35.997c0 11.585 6.299 22.298 16.438 27.957 3.483 1.944 5.563 5.296 5.563 8.965 0 3.577-1.844 6.814-4.933 8.661-1.436.857-5.242 2.6-9.602.255-16.941-9.111-27.466-26.675-27.466-45.838zm40 7.056v-7.997c0-3.282 1.31-6.351 3.687-8.64 2.375-2.286 5.491-3.474 8.784-3.352 6.357.241 11.529 5.862 11.529 12.532v7.457zm-273.086-7.056c0-28.758 22.964-52.504 51.189-52.935.272-.004.543-.006.814-.006 13.721 0 26.641 5.297 36.461 14.968 10.018 9.867 15.535 23.018 15.535 37.032v7.997h-20v-7.457c0-17.582-13.518-31.865-30.773-32.517-8.795-.338-17.088 2.84-23.412 8.931-6.329 6.094-9.814 14.279-9.814 23.046v35.997c0 11.585 6.299 22.298 16.438 27.957 3.483 1.944 5.563 5.296 5.563 8.965 0 3.577-1.844 6.814-4.933 8.661-1.436.857-5.243 2.6-9.602.255-16.941-9.111-27.466-26.675-27.466-45.838zm40 7.056v-7.997c0-3.282 1.31-6.351 3.687-8.64 2.375-2.286 5.491-3.474 8.784-3.352 6.357.241 11.529 5.862 11.529 12.532v7.457zm-97.457 20h37.457v8c0 26.536 14.559 50.85 37.993 63.453 4.426 2.38 9.234 3.566 14.04 3.566 5.271 0 10.541-1.427 15.294-4.268 9.188-5.491 14.673-15.146 14.673-25.828 0-10.857-6.06-20.984-15.814-26.429-3.815-2.129-6.186-6.15-6.186-10.493v-8h173.086v8c0 26.536 14.559 50.85 37.993 63.453 4.426 2.38 9.234 3.566 14.04 3.566 5.271 0 10.541-1.427 15.294-4.268 9.188-5.491 14.673-15.146 14.673-25.828 0-10.857-6.06-20.984-15.814-26.429-3.815-2.129-6.186-6.15-6.186-10.493v-8h121.457c5.514 0 10 4.486 10 10v104.003h-472v-104.005c0-5.514 4.486-10 10-10zm452 392h-452c-5.514 0-10-4.486-10-10v-247.997h472v247.997c0 5.514-4.486 10-10 10z"/><path id="XMLID_1225_" d="m185.882 328.088c0-19.851-16.149-36-36-36-17.164 0-32.02 12.21-35.324 29.033-1.064 5.419 2.466 10.675 7.885 11.74 5.419 1.067 10.676-2.465 11.74-7.885 1.467-7.468 8.069-12.888 15.699-12.888 8.822 0 16 7.178 16 16s-7.178 16-16 16c-5.522 0-10 4.477-10 10s4.478 10 10 10c8.822 0 16 7.178 16 16s-7.178 16-16 16c-7.938 0-14.75-5.914-15.845-13.753-.103-.74-.155-1.497-.155-2.247 0-5.523-4.478-10-10-10s-10 4.477-10 10c0 1.67.116 3.354.347 5.009 2.466 17.668 17.794 30.991 35.653 30.991 19.851 0 36-16.149 36-36 0-10.214-4.283-19.442-11.139-26 6.856-6.558 11.139-15.785 11.139-26z"/><path id="XMLID_1226_" d="m356.79 333.44c-3.34 0-6.233.166-8.836.482l3.617-21.834h30.004c5.522 0 10-4.477 10-10s-4.478-10-10-10h-38.483c-4.892 0-9.065 3.539-9.865 8.365l-7.624 46.016c-.616 3.72.93 7.461 3.971 9.69 3.04 2.229 7.53 2.344 10.893.638.083-.043-.485.218 0 0 4.229-1.904 8.056-3.357 16.324-3.357 5.902 0 11.395 2.362 15.466 6.65 4.068 4.284 6.14 9.905 5.832 15.825-.576 11.089-9.735 19.951-20.853 20.175-10.792.201-20.077-7.664-21.565-18.335-.764-5.47-5.812-9.284-11.286-8.522-5.47.763-9.285 5.816-8.522 11.286 2.85 20.421 20.365 35.578 40.932 35.576.279 0 .563-.003.845-.008 21.551-.434 39.307-17.624 40.423-39.134.595-11.452-3.418-22.332-11.3-30.633-7.774-8.185-18.698-12.88-29.973-12.88z"/><path id="XMLID_1247_" d="m250.392 335.288c-2.794 0-5.523.286-8.16.829 9.576-16.785 21.164-25.781 21.482-26.023 4.409-3.301 5.32-9.55 2.03-13.974-3.295-4.432-9.563-5.351-13.991-2.056-1.449 1.077-35.349 26.821-41.257 75.263-.329 2.073-.505 4.196-.505 6.361 0 22.276 18.123 40.4 40.4 40.4s40.4-18.124 40.4-40.4c.001-22.277-18.122-40.4-40.399-40.4zm0 60.8c-11.249 0-20.4-9.151-20.4-20.4s9.151-20.4 20.4-20.4 20.4 9.151 20.4 20.4-9.151 20.4-20.4 20.4z"/></g></svg>