<svg xmlns="http://www.w3.org/2000/svg" xmlns:xlink="http://www.w3.org/1999/xlink" width="428" height="926" viewBox="0 0 428 926">
  <defs>
    <clipPath id="clip-Calendar_1">
      <rect width="428" height="926"/>
    </clipPath>
  </defs>
  <g id="Calendar_1" data-name="Calendar – 1" clip-path="url(#clip-Calendar_1)">
    <rect width="428" height="926" fill="#fff"/>
    <text id="January_" data-name="January " transform="translate(135 128)" fill="#707070" font-size="40" font-family="SegoeUI-Bold, Segoe UI" font-weight="700"><tspan x="0" y="0">January </tspan></text>
    <g id="Calendar" transform="translate(0 94)">
      <g id="Group_30" data-name="Group 30" transform="translate(1)">
        <g id="Path_3" data-name="Path 3" transform="translate(0 90)" fill="#fff" opacity="0.3">
          <path d="M 60.5 131.5 L 0.5 131.5 L 0.5 0.5 L 60.5 0.5 L 60.5 131.5 Z" stroke="none"/>
          <path d="M 1 1 L 1 131 L 60 131 L 60 1 L 1 1 M 0 0 L 61 0 L 61 132 L 0 132 L 0 0 Z" stroke="none" fill="#707070"/>
        </g>
        <text id="_30" data-name="30" transform="translate(20 115)" fill="#707070" font-size="18" font-family="SegoeUI-Bold, Segoe UI" font-weight="700"><tspan x="0" y="0">30</tspan></text>
      </g>
      <g id="Group_31" data-name="Group 31" transform="translate(62)">
        <g id="Path_3-2" data-name="Path 3" transform="translate(0 90)" fill="#fff" opacity="0.3">
          <path d="M 60.5 131.5 L 0.5 131.5 L 0.5 0.5 L 60.5 0.5 L 60.5 131.5 Z" stroke="none"/>
          <path d="M 1 1 L 1 131 L 60 131 L 60 1 L 1 1 M 0 0 L 61 0 L 61 132 L 0 132 L 0 0 Z" stroke="none" fill="#707070"/>
        </g>
        <text id="_1" data-name="1" transform="translate(20 115)" fill="#707070" font-size="18" font-family="SegoeUI-Bold, Segoe UI" font-weight="700"><tspan x="0" y="0">1</tspan></text>
      </g>
      <g id="Group_32" data-name="Group 32" transform="translate(123)">
        <g id="Path_3-3" data-name="Path 3" transform="translate(0 90)" fill="#fff" opacity="0.3">
          <path d="M 60.5 131.5 L 0.5 131.5 L 0.5 0.5 L 60.5 0.5 L 60.5 131.5 Z" stroke="none"/>
          <path d="M 1 1 L 1 131 L 60 131 L 60 1 L 1 1 M 0 0 L 61 0 L 61 132 L 0 132 L 0 0 Z" stroke="none" fill="#707070"/>
        </g>
        <text id="_2" data-name="2" transform="translate(20 115)" fill="#707070" font-size="18" font-family="SegoeUI-Bold, Segoe UI" font-weight="700"><tspan x="0" y="0">2</tspan></text>
      </g>
      <g id="Group_33" data-name="Group 33" transform="translate(184)">
        <g id="Path_3-4" data-name="Path 3" transform="translate(0 90)" fill="#fff" opacity="0.3">
          <path d="M 60.5 131.5 L 0.5 131.5 L 0.5 0.5 L 60.5 0.5 L 60.5 131.5 Z" stroke="none"/>
          <path d="M 1 1 L 1 131 L 60 131 L 60 1 L 1 1 M 0 0 L 61 0 L 61 132 L 0 132 L 0 0 Z" stroke="none" fill="#707070"/>
        </g>
        <text id="_3" data-name="3" transform="translate(20 115)" fill="#707070" font-size="18" font-family="SegoeUI-Bold, Segoe UI" font-weight="700"><tspan x="0" y="0">3</tspan></text>
      </g>
      <g id="Group_34" data-name="Group 34" transform="translate(245)">
        <g id="Path_3-5" data-name="Path 3" transform="translate(0 90)" fill="#fff" opacity="0.3">
          <path d="M 60.5 131.5 L 0.5 131.5 L 0.5 0.5 L 60.5 0.5 L 60.5 131.5 Z" stroke="none"/>
          <path d="M 1 1 L 1 131 L 60 131 L 60 1 L 1 1 M 0 0 L 61 0 L 61 132 L 0 132 L 0 0 Z" stroke="none" fill="#707070"/>
        </g>
        <text id="_4" data-name="4" transform="translate(20 115)" fill="#707070" font-size="18" font-family="SegoeUI-Bold, Segoe UI" font-weight="700"><tspan x="0" y="0">4</tspan></text>
      </g>
      <g id="Group_35" data-name="Group 35" transform="translate(306)">
        <g id="Path_3-6" data-name="Path 3" transform="translate(0 90)" fill="#fff" opacity="0.3">
          <path d="M 60.5 131.5 L 0.5 131.5 L 0.5 0.5 L 60.5 0.5 L 60.5 131.5 Z" stroke="none"/>
          <path d="M 1 1 L 1 131 L 60 131 L 60 1 L 1 1 M 0 0 L 61 0 L 61 132 L 0 132 L 0 0 Z" stroke="none" fill="#707070"/>
        </g>
        <text id="_5" data-name="5" transform="translate(20 115)" fill="#707070" font-size="18" font-family="SegoeUI-Bold, Segoe UI" font-weight="700"><tspan x="0" y="0">5</tspan></text>
      </g>
      <g id="Group_36" data-name="Group 36" transform="translate(367)">
        <g id="Path_3-7" data-name="Path 3" transform="translate(0 90)" fill="#fff" opacity="0.3">
          <path d="M 60.5 131.5 L 0.5 131.5 L 0.5 0.5 L 60.5 0.5 L 60.5 131.5 Z" stroke="none"/>
          <path d="M 1 1 L 1 131 L 60 131 L 60 1 L 1 1 M 0 0 L 61 0 L 61 132 L 0 132 L 0 0 Z" stroke="none" fill="#707070"/>
        </g>
        <text id="_6" data-name="6" transform="translate(20 115)" fill="#707070" font-size="18" font-family="SegoeUI-Bold, Segoe UI" font-weight="700"><tspan x="0" y="0">6</tspan></text>
      </g>
      <g id="Group_37" data-name="Group 37" transform="translate(1 132)">
        <g id="Path_3-8" data-name="Path 3" transform="translate(0 90)" fill="#fff" opacity="0.3">
          <path d="M 60.5 131.5 L 0.5 131.5 L 0.5 0.5 L 60.5 0.5 L 60.5 131.5 Z" stroke="none"/>
          <path d="M 1 1 L 1 131 L 60 131 L 60 1 L 1 1 M 0 0 L 61 0 L 61 132 L 0 132 L 0 0 Z" stroke="none" fill="#707070"/>
        </g>
        <text id="_7" data-name="7" transform="translate(20 115)" fill="#707070" font-size="18" font-family="SegoeUI-Bold, Segoe UI" font-weight="700"><tspan x="0" y="0">7</tspan></text>
      </g>
      <g id="Group_38" data-name="Group 38" transform="translate(62 132)">
        <g id="Path_3-9" data-name="Path 3" transform="translate(0 90)" fill="#fff" opacity="0.3">
          <path d="M 60.5 131.5 L 0.5 131.5 L 0.5 0.5 L 60.5 0.5 L 60.5 131.5 Z" stroke="none"/>
          <path d="M 1 1 L 1 131 L 60 131 L 60 1 L 1 1 M 0 0 L 61 0 L 61 132 L 0 132 L 0 0 Z" stroke="none" fill="#707070"/>
        </g>
        <text id="_8" data-name="8" transform="translate(20 115)" fill="#707070" font-size="18" font-family="SegoeUI-Bold, Segoe UI" font-weight="700"><tspan x="0" y="0">8</tspan></text>
      </g>
      <g id="Group_39" data-name="Group 39" transform="translate(123 132)">
        <g id="Path_3-10" data-name="Path 3" transform="translate(0 90)" fill="#fff" opacity="0.3">
          <path d="M 60.5 131.5 L 0.5 131.5 L 0.5 0.5 L 60.5 0.5 L 60.5 131.5 Z" stroke="none"/>
          <path d="M 1 1 L 1 131 L 60 131 L 60 1 L 1 1 M 0 0 L 61 0 L 61 132 L 0 132 L 0 0 Z" stroke="none" fill="#707070"/>
        </g>
        <text id="_9" data-name="9" transform="translate(20 115)" fill="#707070" font-size="18" font-family="SegoeUI-Bold, Segoe UI" font-weight="700"><tspan x="0" y="0">9</tspan></text>
      </g>
      <g id="Group_40" data-name="Group 40" transform="translate(184 132)">
        <g id="Path_3-11" data-name="Path 3" transform="translate(0 90)" fill="#fff" opacity="0.3">
          <path d="M 60.5 131.5 L 0.5 131.5 L 0.5 0.5 L 60.5 0.5 L 60.5 131.5 Z" stroke="none"/>
          <path d="M 1 1 L 1 131 L 60 131 L 60 1 L 1 1 M 0 0 L 61 0 L 61 132 L 0 132 L 0 0 Z" stroke="none" fill="#707070"/>
        </g>
        <text id="_10_" data-name="10
" transform="translate(20 115)" fill="#707070" font-size="18" font-family="SegoeUI-Bold, Segoe UI" font-weight="700"><tspan x="0" y="0">10</tspan><tspan x="0" y="24"></tspan></text>
      </g>
      <g id="Group_41" data-name="Group 41" transform="translate(245 132)">
        <g id="Path_3-12" data-name="Path 3" transform="translate(0 90)" fill="#fff" opacity="0.3">
          <path d="M 60.5 131.5 L 0.5 131.5 L 0.5 0.5 L 60.5 0.5 L 60.5 131.5 Z" stroke="none"/>
          <path d="M 1 1 L 1 131 L 60 131 L 60 1 L 1 1 M 0 0 L 61 0 L 61 132 L 0 132 L 0 0 Z" stroke="none" fill="#707070"/>
        </g>
        <text id="_11" data-name="11" transform="translate(20 115)" fill="#707070" font-size="18" font-family="SegoeUI-Bold, Segoe UI" font-weight="700"><tspan x="0" y="0">11</tspan></text>
      </g>
      <g id="Group_42" data-name="Group 42" transform="translate(306 132)">
        <g id="Path_3-13" data-name="Path 3" transform="translate(0 90)" fill="#fff" opacity="0.3">
          <path d="M 60.5 131.5 L 0.5 131.5 L 0.5 0.5 L 60.5 0.5 L 60.5 131.5 Z" stroke="none"/>
          <path d="M 1 1 L 1 131 L 60 131 L 60 1 L 1 1 M 0 0 L 61 0 L 61 132 L 0 132 L 0 0 Z" stroke="none" fill="#707070"/>
        </g>
        <text id="_12" data-name="12" transform="translate(20 115)" fill="#707070" font-size="18" font-family="SegoeUI-Bold, Segoe UI" font-weight="700"><tspan x="0" y="0">12</tspan></text>
      </g>
      <g id="Group_43" data-name="Group 43" transform="translate(367 132)">
        <g id="Path_3-14" data-name="Path 3" transform="translate(0 90)" fill="#fff" opacity="0.3">
          <path d="M 60.5 131.5 L 0.5 131.5 L 0.5 0.5 L 60.5 0.5 L 60.5 131.5 Z" stroke="none"/>
          <path d="M 1 1 L 1 131 L 60 131 L 60 1 L 1 1 M 0 0 L 61 0 L 61 132 L 0 132 L 0 0 Z" stroke="none" fill="#707070"/>
        </g>
        <text id="_13" data-name="13" transform="translate(20 115)" fill="#707070" font-size="18" font-family="SegoeUI-Bold, Segoe UI" font-weight="700"><tspan x="0" y="0">13</tspan></text>
      </g>
      <g id="Group_44" data-name="Group 44" transform="translate(1 264)">
        <g id="Path_3-15" data-name="Path 3" transform="translate(0 90)" fill="#fff" opacity="0.3">
          <path d="M 60.5 131.5 L 0.5 131.5 L 0.5 0.5 L 60.5 0.5 L 60.5 131.5 Z" stroke="none"/>
          <path d="M 1 1 L 1 131 L 60 131 L 60 1 L 1 1 M 0 0 L 61 0 L 61 132 L 0 132 L 0 0 Z" stroke="none" fill="#707070"/>
        </g>
        <text id="_14" data-name="14" transform="translate(20 115)" fill="#707070" font-size="18" font-family="SegoeUI-Bold, Segoe UI" font-weight="700"><tspan x="0" y="0">14</tspan></text>
      </g>
      <g id="Group_45" data-name="Group 45" transform="translate(62 264)">
        <g id="Path_3-16" data-name="Path 3" transform="translate(0 90)" fill="#fff" opacity="0.3">
          <path d="M 60.5 131.5 L 0.5 131.5 L 0.5 0.5 L 60.5 0.5 L 60.5 131.5 Z" stroke="none"/>
          <path d="M 1 1 L 1 131 L 60 131 L 60 1 L 1 1 M 0 0 L 61 0 L 61 132 L 0 132 L 0 0 Z" stroke="none" fill="#707070"/>
        </g>
        <text id="_15" data-name="15" transform="translate(20 115)" fill="#707070" font-size="18" font-family="SegoeUI-Bold, Segoe UI" font-weight="700"><tspan x="0" y="0">15</tspan></text>
      </g>
      <g id="Group_46" data-name="Group 46" transform="translate(123 264)">
        <g id="Path_3-17" data-name="Path 3" transform="translate(0 90)" fill="#fff" opacity="0.3">
          <path d="M 60.5 131.5 L 0.5 131.5 L 0.5 0.5 L 60.5 0.5 L 60.5 131.5 Z" stroke="none"/>
          <path d="M 1 1 L 1 131 L 60 131 L 60 1 L 1 1 M 0 0 L 61 0 L 61 132 L 0 132 L 0 0 Z" stroke="none" fill="#707070"/>
        </g>
        <text id="_16" data-name="16" transform="translate(20 115)" fill="#707070" font-size="18" font-family="SegoeUI-Bold, Segoe UI" font-weight="700"><tspan x="0" y="0">16</tspan></text>
      </g>
      <g id="Group_47" data-name="Group 47" transform="translate(184 264)">
        <g id="Path_3-18" data-name="Path 3" transform="translate(0 90)" fill="#fff" opacity="0.3">
          <path d="M 60.5 131.5 L 0.5 131.5 L 0.5 0.5 L 60.5 0.5 L 60.5 131.5 Z" stroke="none"/>
          <path d="M 1 1 L 1 131 L 60 131 L 60 1 L 1 1 M 0 0 L 61 0 L 61 132 L 0 132 L 0 0 Z" stroke="none" fill="#707070"/>
        </g>
        <text id="_17" data-name="17" transform="translate(20 115)" fill="#707070" font-size="18" font-family="SegoeUI-Bold, Segoe UI" font-weight="700"><tspan x="0" y="0">17</tspan></text>
      </g>
      <g id="Group_48" data-name="Group 48" transform="translate(245 264)">
        <g id="Path_3-19" data-name="Path 3" transform="translate(0 90)" fill="#fff" opacity="0.3">
          <path d="M 60.5 131.5 L 0.5 131.5 L 0.5 0.5 L 60.5 0.5 L 60.5 131.5 Z" stroke="none"/>
          <path d="M 1 1 L 1 131 L 60 131 L 60 1 L 1 1 M 0 0 L 61 0 L 61 132 L 0 132 L 0 0 Z" stroke="none" fill="#707070"/>
        </g>
        <text id="_18" data-name="18" transform="translate(20 115)" fill="#707070" font-size="18" font-family="SegoeUI-Bold, Segoe UI" font-weight="700"><tspan x="0" y="0">18</tspan></text>
      </g>
      <g id="Group_49" data-name="Group 49" transform="translate(306 264)">
        <g id="Path_3-20" data-name="Path 3" transform="translate(0 90)" fill="#fff" opacity="0.3">
          <path d="M 60.5 131.5 L 0.5 131.5 L 0.5 0.5 L 60.5 0.5 L 60.5 131.5 Z" stroke="none"/>
          <path d="M 1 1 L 1 131 L 60 131 L 60 1 L 1 1 M 0 0 L 61 0 L 61 132 L 0 132 L 0 0 Z" stroke="none" fill="#707070"/>
        </g>
        <text id="_19" data-name="19" transform="translate(20 115)" fill="#707070" font-size="18" font-family="SegoeUI-Bold, Segoe UI" font-weight="700"><tspan x="0" y="0">19</tspan></text>
      </g>
      <g id="Group_50" data-name="Group 50" transform="translate(367 264)">
        <g id="Path_3-21" data-name="Path 3" transform="translate(0 90)" fill="#fff" opacity="0.3">
          <path d="M 60.5 131.5 L 0.5 131.5 L 0.5 0.5 L 60.5 0.5 L 60.5 131.5 Z" stroke="none"/>
          <path d="M 1 1 L 1 131 L 60 131 L 60 1 L 1 1 M 0 0 L 61 0 L 61 132 L 0 132 L 0 0 Z" stroke="none" fill="#707070"/>
        </g>
        <text id="_20" data-name="20" transform="translate(20 115)" fill="#707070" font-size="18" font-family="SegoeUI-Bold, Segoe UI" font-weight="700"><tspan x="0" y="0">20</tspan></text>
      </g>
      <g id="Group_51" data-name="Group 51" transform="translate(1 396)">
        <g id="Path_3-22" data-name="Path 3" transform="translate(0 90)" fill="#fff" opacity="0.3">
          <path d="M 60.5 131.5 L 0.5 131.5 L 0.5 0.5 L 60.5 0.5 L 60.5 131.5 Z" stroke="none"/>
          <path d="M 1 1 L 1 131 L 60 131 L 60 1 L 1 1 M 0 0 L 61 0 L 61 132 L 0 132 L 0 0 Z" stroke="none" fill="#707070"/>
        </g>
        <text id="_21" data-name="21" transform="translate(20 115)" fill="#707070" font-size="18" font-family="SegoeUI-Bold, Segoe UI" font-weight="700"><tspan x="0" y="0">21</tspan></text>
      </g>
      <g id="Group_52" data-name="Group 52" transform="translate(62 396)">
        <g id="Path_3-23" data-name="Path 3" transform="translate(0 90)" fill="#fff" opacity="0.3">
          <path d="M 60.5 131.5 L 0.5 131.5 L 0.5 0.5 L 60.5 0.5 L 60.5 131.5 Z" stroke="none"/>
          <path d="M 1 1 L 1 131 L 60 131 L 60 1 L 1 1 M 0 0 L 61 0 L 61 132 L 0 132 L 0 0 Z" stroke="none" fill="#707070"/>
        </g>
        <text id="_22" data-name="22" transform="translate(20 115)" fill="#707070" font-size="18" font-family="SegoeUI-Bold, Segoe UI" font-weight="700"><tspan x="0" y="0">22</tspan></text>
      </g>
      <g id="Group_53" data-name="Group 53" transform="translate(123 396)">
        <g id="Path_3-24" data-name="Path 3" transform="translate(0 90)" fill="#fff" opacity="0.3">
          <path d="M 60.5 131.5 L 0.5 131.5 L 0.5 0.5 L 60.5 0.5 L 60.5 131.5 Z" stroke="none"/>
          <path d="M 1 1 L 1 131 L 60 131 L 60 1 L 1 1 M 0 0 L 61 0 L 61 132 L 0 132 L 0 0 Z" stroke="none" fill="#707070"/>
        </g>
        <text id="_23" data-name="23" transform="translate(20 115)" fill="#707070" font-size="18" font-family="SegoeUI-Bold, Segoe UI" font-weight="700"><tspan x="0" y="0">23</tspan></text>
      </g>
      <g id="Group_54" data-name="Group 54" transform="translate(184 396)">
        <g id="Path_3-25" data-name="Path 3" transform="translate(0 90)" fill="#fff" opacity="0.3">
          <path d="M 60.5 131.5 L 0.5 131.5 L 0.5 0.5 L 60.5 0.5 L 60.5 131.5 Z" stroke="none"/>
          <path d="M 1 1 L 1 131 L 60 131 L 60 1 L 1 1 M 0 0 L 61 0 L 61 132 L 0 132 L 0 0 Z" stroke="none" fill="#707070"/>
        </g>
        <text id="_24" data-name="24" transform="translate(20 115)" fill="#707070" font-size="18" font-family="SegoeUI-Bold, Segoe UI" font-weight="700"><tspan x="0" y="0">24</tspan></text>
      </g>
      <g id="Group_55" data-name="Group 55" transform="translate(245 396)">
        <g id="Path_3-26" data-name="Path 3" transform="translate(0 90)" fill="#fff" opacity="0.3">
          <path d="M 60.5 131.5 L 0.5 131.5 L 0.5 0.5 L 60.5 0.5 L 60.5 131.5 Z" stroke="none"/>
          <path d="M 1 1 L 1 131 L 60 131 L 60 1 L 1 1 M 0 0 L 61 0 L 61 132 L 0 132 L 0 0 Z" stroke="none" fill="#707070"/>
        </g>
        <text id="_25" data-name="25" transform="translate(20 115)" fill="#707070" font-size="18" font-family="SegoeUI-Bold, Segoe UI" font-weight="700"><tspan x="0" y="0">25</tspan></text>
      </g>
      <g id="Group_56" data-name="Group 56" transform="translate(306 396)">
        <g id="Path_3-27" data-name="Path 3" transform="translate(0 90)" fill="#fff" opacity="0.3">
          <path d="M 60.5 131.5 L 0.5 131.5 L 0.5 0.5 L 60.5 0.5 L 60.5 131.5 Z" stroke="none"/>
          <path d="M 1 1 L 1 131 L 60 131 L 60 1 L 1 1 M 0 0 L 61 0 L 61 132 L 0 132 L 0 0 Z" stroke="none" fill="#707070"/>
        </g>
        <text id="_26" data-name="26" transform="translate(20 115)" fill="#707070" font-size="18" font-family="SegoeUI-Bold, Segoe UI" font-weight="700"><tspan x="0" y="0">26</tspan></text>
      </g>
      <g id="Group_57" data-name="Group 57" transform="translate(367 396)">
        <g id="Path_3-28" data-name="Path 3" transform="translate(0 90)" fill="#fff" opacity="0.3">
          <path d="M 60.5 131.5 L 0.5 131.5 L 0.5 0.5 L 60.5 0.5 L 60.5 131.5 Z" stroke="none"/>
          <path d="M 1 1 L 1 131 L 60 131 L 60 1 L 1 1 M 0 0 L 61 0 L 61 132 L 0 132 L 0 0 Z" stroke="none" fill="#707070"/>
        </g>
        <text id="_27" data-name="27" transform="translate(20 115)" fill="#707070" font-size="18" font-family="SegoeUI-Bold, Segoe UI" font-weight="700"><tspan x="0" y="0">27</tspan></text>
      </g>
      <g id="Rectangle_112" data-name="Rectangle 112" transform="translate(61 75)" fill="#fff" stroke="#707070" stroke-width="1" opacity="0.3">
        <rect width="2" height="15" stroke="none"/>
        <rect x="0.5" y="0.5" width="1" height="14" fill="none"/>
      </g>
      <text id="M" transform="translate(22 85)" fill="#707070" font-size="18" font-family="SegoeUI-Bold, Segoe UI" font-weight="700"><tspan x="0" y="0">M</tspan></text>
      <text id="M-2" data-name="M" transform="translate(22 85)" fill="#707070" font-size="18" font-family="SegoeUI-Bold, Segoe UI" font-weight="700"><tspan x="0" y="0">M</tspan></text>
      <text id="T" transform="translate(85 85)" fill="#707070" font-size="18" font-family="SegoeUI-Bold, Segoe UI" font-weight="700"><tspan x="0" y="0">T</tspan></text>
      <text id="W" transform="translate(146 85)" fill="#707070" font-size="18" font-family="SegoeUI-Bold, Segoe UI" font-weight="700"><tspan x="0" y="0">W</tspan></text>
      <text id="T-2" data-name="T" transform="translate(207 85)" fill="#707070" font-size="18" font-family="SegoeUI-Bold, Segoe UI" font-weight="700"><tspan x="0" y="0">T</tspan></text>
      <text id="F" transform="translate(268 85)" fill="#707070" font-size="18" font-family="SegoeUI-Bold, Segoe UI" font-weight="700"><tspan x="0" y="0">F</tspan></text>
      <text id="S" transform="translate(390 85)" fill="#707070" font-size="18" font-family="SegoeUI-Bold, Segoe UI" font-weight="700"><tspan x="0" y="0">S</tspan></text>
      <text id="S-2" data-name="S" transform="translate(329 85)" fill="#707070" font-size="18" font-family="SegoeUI-Bold, Segoe UI" font-weight="700"><tspan x="0" y="0">S</tspan></text>
      <g id="Rectangle_114" data-name="Rectangle 114" transform="translate(244 75)" fill="#fff" stroke="#707070" stroke-width="1" opacity="0.3">
        <rect width="2" height="15" stroke="none"/>
        <rect x="0.5" y="0.5" width="1" height="14" fill="none"/>
      </g>
      <g id="Rectangle_115" data-name="Rectangle 115" transform="translate(183 75)" fill="#fff" stroke="#707070" stroke-width="1" opacity="0.3">
        <rect width="2" height="15" stroke="none"/>
        <rect x="0.5" y="0.5" width="1" height="14" fill="none"/>
      </g>
      <g id="Rectangle_116" data-name="Rectangle 116" transform="translate(122 75)" fill="#fff" stroke="#707070" stroke-width="1" opacity="0.3">
        <rect width="2" height="15" stroke="none"/>
        <rect x="0.5" y="0.5" width="1" height="14" fill="none"/>
      </g>
      <g id="Rectangle_117" data-name="Rectangle 117" transform="translate(366 75)" fill="#fff" stroke="#707070" stroke-width="1" opacity="0.3">
        <rect width="2" height="15" stroke="none"/>
        <rect x="0.5" y="0.5" width="1" height="14" fill="none"/>
      </g>
      <g id="Rectangle_118" data-name="Rectangle 118" transform="translate(305 75)" fill="#fff" stroke="#707070" stroke-width="1" opacity="0.3">
        <rect width="2" height="15" stroke="none"/>
        <rect x="0.5" y="0.5" width="1" height="14" fill="none"/>
      </g>
      <g id="Rectangle_113" data-name="Rectangle 113" transform="translate(0 75)" fill="#fff" stroke="#707070" stroke-width="1" opacity="0.3">
        <rect width="2" height="15" stroke="none"/>
        <rect x="0.5" y="0.5" width="1" height="14" fill="none"/>
      </g>
    </g>
    <path id="Polygon_1" data-name="Polygon 1" d="M13,0,26,22H0Z" transform="translate(14 57) rotate(-90)" fill="#656565"/>
    <text id="back" transform="translate(50 52)" font-size="20" font-family="SegoeUI, Segoe UI" text-decoration="underline"><tspan x="0" y="0">back</tspan></text>
    <path id="Polygon_5" data-name="Polygon 5" d="M16,0,32,22H0Z" transform="translate(99 131) rotate(-90)" fill="#656565"/>
    <path id="Polygon_6" data-name="Polygon 6" d="M16,0,32,22H0Z" transform="translate(313 99) rotate(90)" fill="#656565"/>
    <g id="Group_16" data-name="Group 16" transform="translate(592)">
      <g id="Component_3" data-name="Component 3" transform="translate(-593 791)">
        <rect id="Rectangle_10" data-name="Rectangle 10" width="428" height="89" transform="translate(0 46)" fill="#c2c2c2"/>
        <rect id="Rectangle_11" data-name="Rectangle 11" width="90" height="89" transform="translate(0 46)" fill="#c2c2c2"/>
        <path id="Path_2" data-name="Path 2" d="M0,0H89.864V89H0Z" transform="translate(90 46)" fill="#c2c2c2"/>
        <rect id="Rectangle_12" data-name="Rectangle 12" width="90" height="89" transform="translate(251 46)" fill="#c2c2c2"/>
        <rect id="Rectangle_13" data-name="Rectangle 13" width="88" height="88" transform="translate(341 47)" fill="#c2c2c2"/>
        <line id="Line_12" data-name="Line 12" y2="88" transform="translate(90 47)" fill="none" stroke="#fff" stroke-width="2"/>
        <line id="Line_13" data-name="Line 13" y2="89" transform="translate(341 46)" fill="none" stroke="#fff" stroke-width="2"/>
        <ellipse id="Ellipse_3" data-name="Ellipse 3" cx="46" cy="46.5" rx="46" ry="46.5" transform="translate(168)" fill="#656565"/>
        <line id="Line_14" data-name="Line 14" x2="44" transform="translate(214 24) rotate(90)" fill="none" stroke="#fff" stroke-width="5"/>
        <line id="Line_15" data-name="Line 15" x2="44" transform="translate(192 47)" fill="none" stroke="#fff" stroke-width="5"/>
      </g>
      <g id="Group_5" data-name="Group 5">
        <g id="Group_1" data-name="Group 1" transform="translate(0 2)">
          <g id="Rectangle_37" data-name="Rectangle 37" transform="translate(-567 847)" fill="none" stroke="#fff" stroke-width="4">
            <rect width="35" height="42" stroke="none"/>
            <rect x="2" y="2" width="31" height="38" fill="none"/>
          </g>
          <line id="Line_37" data-name="Line 37" x2="23" transform="translate(-561 868)" fill="none" stroke="#fff" stroke-width="3"/>
          <line id="Line_38" data-name="Line 38" x2="23" transform="translate(-561 877)" fill="none" stroke="#fff" stroke-width="3"/>
          <line id="Line_39" data-name="Line 39" x2="23" transform="translate(-561 859)" fill="none" stroke="#fff" stroke-width="3"/>
        </g>
        <text id="Tasks" transform="translate(-572 913)" fill="#707070" font-size="20" font-family="SegoeUI, Segoe UI"><tspan x="0" y="0">Tasks</tspan></text>
      </g>
      <g id="Group_6" data-name="Group 6">
        <g id="Group_4" data-name="Group 4">
          <line id="Line_40" data-name="Line 40" x2="35" transform="translate(-483.5 891)" fill="none" stroke="#fff" stroke-width="4"/>
          <line id="Line_41" data-name="Line 41" x2="23" transform="translate(-476.5 868) rotate(90)" fill="none" stroke="#fff" stroke-width="3"/>
          <line id="Line_42" data-name="Line 42" y2="32.5" transform="translate(-455.5 858.5)" fill="none" stroke="#fff" stroke-width="3"/>
          <line id="Line_43" data-name="Line 43" y2="16" transform="translate(-466 875)" fill="none" stroke="#fff" stroke-width="3"/>
        </g>
        <text id="Stats" transform="translate(-487 913)" fill="#707070" font-size="20" font-family="SegoeUI, Segoe UI"><tspan x="0" y="0">Stats</tspan></text>
      </g>
      <g id="Group_7" data-name="Group 7">
        <g id="Group_2" data-name="Group 2" transform="translate(-13 -1)">
          <g id="Ellipse_4" data-name="Ellipse 4" transform="translate(-297 857)" fill="#fff" stroke="#fff" stroke-width="4">
            <ellipse cx="10.5" cy="11" rx="10.5" ry="11" stroke="none"/>
            <ellipse cx="10.5" cy="11" rx="8.5" ry="9" fill="none"/>
          </g>
          <rect id="Rectangle_38" data-name="Rectangle 38" width="11" height="14" rx="1" transform="translate(-292 875)" fill="#fff"/>
          <rect id="Rectangle_39" data-name="Rectangle 39" width="7" height="11" rx="3.5" transform="translate(-290 881)" fill="#fff"/>
          <line id="Line_44" data-name="Line 44" x2="7.971" transform="translate(-308.5 868.529)" fill="none" stroke="#fff" stroke-width="1"/>
          <line id="Line_45" data-name="Line 45" y1="5" x2="6" transform="translate(-276 852)" fill="none" stroke="#fff" stroke-width="1"/>
          <line id="Line_46" data-name="Line 46" x2="7.971" transform="translate(-273.071 868.529)" fill="none" stroke="#fff" stroke-width="1"/>
          <line id="Line_47" data-name="Line 47" x2="5.314" y2="5.314" transform="translate(-303.186 851.7)" fill="none" stroke="#fff" stroke-width="1"/>
          <line id="Line_48" data-name="Line 48" y2="7.971" transform="translate(-286.8 845.5)" fill="none" stroke="#fff" stroke-width="1"/>
        </g>
        <text id="Tips" transform="translate(-318 913)" fill="#707070" font-size="20" font-family="SegoeUI, Segoe UI"><tspan x="0" y="0">Tips</tspan></text>
      </g>
      <g id="Group_8" data-name="Group 8">
        <g id="Group_3" data-name="Group 3" transform="translate(2 -6)">
          <g id="Ellipse_5" data-name="Ellipse 5" transform="translate(-219 855)" fill="#fff" stroke="#fff" stroke-width="4">
            <circle cx="12" cy="12" r="12" stroke="none"/>
            <circle cx="12" cy="12" r="10" fill="none"/>
          </g>
          <path id="Rectangle_40" data-name="Rectangle 40" d="M15,0H25A15,15,0,0,1,40,15v2a0,0,0,0,1,0,0H0a0,0,0,0,1,0,0V15A15,15,0,0,1,15,0Z" transform="translate(-226 880)" fill="#fff"/>
        </g>
        <text id="Profile" transform="translate(-234 913)" fill="#707070" font-size="20" font-family="SegoeUI, Segoe UI"><tspan x="0" y="0">Profile</tspan></text>
      </g>
    </g>
  </g>
</svg>
