<svg xmlns="http://www.w3.org/2000/svg" width="394.79" height="512" viewBox="0 0 394.79 512">
  <g id="Group_85" data-name="Group 85" transform="translate(-58.605)">
    <g id="Group_84" data-name="Group 84">
      <path id="Path_32" data-name="Path 32" d="M429.446,230.069c-.289-.488-.59-.97-.928-1.434L270.7,7.572a18.062,18.062,0,0,0-29.407,0L83.478,228.635c-.325.464-.638.94-.922,1.434-32.419,55.916-31.9,123.79,1.391,181.573C119.607,473.546,185.535,512,256,512s136.391-38.46,172.056-100.364C461.34,353.858,461.864,285.979,429.446,230.069ZM396.738,393.6c-29.226,50.742-83.155,82.263-140.74,82.263S144.49,444.344,115.258,393.6c-27.016-46.9-27.684-99.581-1.861-144.685L256,49.17,398.6,248.922C424.416,294.027,423.753,346.708,396.738,393.6Z"/>
    </g>
  </g>
</svg>
