<svg xmlns="http://www.w3.org/2000/svg" width="262" height="262" viewBox="0 0 262 262">
  <g id="Group_135" data-name="Group 135" transform="translate(-83 -27)">
    <g id="Ellipse_46" data-name="Ellipse 46" transform="translate(83 27)" fill="#fff" stroke="#707070" stroke-width="20">
      <circle cx="131" cy="131" r="131" stroke="none"/>
      <circle cx="131" cy="131" r="121" fill="none"/>
    </g>
    <text id="_22" data-name="22" transform="translate(192 145)" font-size="38" font-family="SegoeUI-Bold, Segoe UI" font-weight="700"><tspan x="0" y="0">22</tspan></text>
    <g id="flame" transform="translate(78.27 158.001)">
      <path id="Path_5" data-name="Path 5" d="M125.718,66.305a.716.716,0,0,0,.936-1.02c-2.155-3.354-4.2-9-.944-16.268,5.422-12.122,8.722-18.4,8.722-18.4a43.644,43.644,0,0,0,6.512,13.841c4.579,6.27,7.085,14.155,3.045,20.724a.716.716,0,0,0,.934,1.014c5-2.558,10.611-7.69,11.243-17.9a34.939,34.939,0,0,0-1.867-13c-2.25-6.987-5.016-10.247-6.617-11.648a.716.716,0,0,0-1.184.587c.466,7.539-2.37,9.452-3.984,5.141a26.384,26.384,0,0,1-1.021-8.328,28.478,28.478,0,0,0-5.615-17.307A19.6,19.6,0,0,0,132.35.151.716.716,0,0,0,131.2.769c.3,4.094.028,15.826-10.265,29.843-9.333,13-5.716,22.988-4.433,25.692A21.167,21.167,0,0,0,125.718,66.305Z" transform="translate(0 0)"/>
    </g>
  </g>
</svg>
