<svg id="Icons" height="512" viewBox="0 0 74 74" width="512" xmlns="http://www.w3.org/2000/svg"><path d="m30.27 59.54h-.19c-8.67-1.67-13.92-6.92-15.61-15.61a1 1 0 0 1 .2-.81c18.49-23.56 27.77-32.31 27.86-32.4 7.53-8.4 27.61-8.72 28.47-8.72a1 1 0 0 1 1 1c0 .85-.34 20.92-8.8 28.51 0 0-8.76 9.32-32.32 27.81a1 1 0 0 1 -.61.22zm-13.74-15.54c1.59 7.49 6 11.91 13.49 13.49 23.13-18.2 31.7-27.3 31.79-27.39 6.82-6.1 7.98-21.86 8.19-26.1-4.24.22-20 1.35-26 8.12-.19.15-9.28 8.73-27.47 31.88z"/><path d="m67.89 22.83h-.16a20 20 0 0 1 -10.92-5.62 20 20 0 0 1 -5.61-10.96 1 1 0 0 1 .8-1.15 1 1 0 0 1 1.15.82 18 18 0 0 0 5.06 9.86 18 18 0 0 0 9.83 5.06 1 1 0 0 1 -.17 2z"/><path d="m48.09 34.07a8.17 8.17 0 1 1 5.78-13.95 8.17 8.17 0 0 1 -5.78 14zm0-14.34a6.17 6.17 0 0 0 -4.36 10.54 6.17 6.17 0 1 0 4.36-10.54z"/><path d="m35.3 71.06a.83.83 0 0 1 -.22 0 1 1 0 0 1 -.71-.6l-4.72-11.79a1 1 0 0 1 1.86-.75l4.18 10.41c7.25-6.86 10.31-11.86 10.8-12.68.9-4.37-.72-10.14-.74-10.2a1 1 0 1 1 1.93-.55c.07.26 1.81 6.44.73 11.32a1.17 1.17 0 0 1 -.1.26c-.13.25-3.31 6.07-12.31 14.31a1 1 0 0 1 -.7.27z"/><path d="m15.7 44.41a.94.94 0 0 1 -.37-.07l-11.76-4.72a1 1 0 0 1 -.37-1.62c8.25-9 14.06-12.19 14.31-12.33a1.14 1.14 0 0 1 .26-.09c4.88-1.08 11.06.65 11.32.73a1 1 0 0 1 .69 1.23 1 1 0 0 1 -1.24.69c-.05 0-5.82-1.63-10.19-.73-.82.48-5.83 3.54-12.69 10.8l10.41 4.17a1 1 0 0 1 -.37 1.93z"/><path d="m12 72a1 1 0 0 1 -.71-.29 1 1 0 0 1 0-1.42l10.32-10.36a1 1 0 0 1 1.39 1.42l-10.33 10.36a1 1 0 0 1 -.67.29z"/><path d="m3 63a1 1 0 0 1 -.7-.29 1 1 0 0 1 0-1.41l10.35-10.3a1 1 0 1 1 1.41 1.41l-10.36 10.33a1 1 0 0 1 -.7.26z"/><path d="m3.64 71.36a1 1 0 0 1 -.71-.3 1 1 0 0 1 0-1.41l10.36-10.36a1 1 0 0 1 1.41 1.41l-10.36 10.36a1 1 0 0 1 -.7.3z"/></svg>